<svg xmlns="http://www.w3.org/2000/svg" viewBox="0 0 512 512" width="512" height="512">
  <defs>
    <linearGradient id="bg" x1="0%" y1="0%" x2="100%" y2="100%">
      <stop offset="0%" stop-color="#0c1226"/>
      <stop offset="100%" stop-color="#0a0e1f"/>
    </linearGradient>
    <linearGradient id="bolt" x1="0%" y1="100%" x2="100%" y2="0%">
      <stop offset="0%" stop-color="#a3e635"/>
      <stop offset="100%" stop-color="#65a30d"/>
    </linearGradient>
  </defs>
  <rect width="512" height="512" rx="96" fill="url(#bg)"/>
  <g fill="url(#bolt)" stroke="url(#bolt)" stroke-width="2" stroke-linejoin="round">
    <path d="M150 430
             C150 380 230 372 230 322
             C230 272 150 264 150 214
             L150 158
             C150 158 252 158 290 158
             L262 186
             C236 186 206 186 206 214
             C206 246 286 254 286 322
             C286 390 206 398 206 430 Z"/>
    <path d="M275 175
             L355 95
             L370 168
             L320 190 Z"/>
  </g>
</svg>
